Patient4_TMGait_0pt8_01_right_51_EMG.mot
version=1
nRows=13
nColumns=33
inDegrees=no
endheader
time	1LAddLong	2LGlutMax	3LGlutMed	4LIliopsoas	5LSemiMemb	6LBicFemLong	7LRecFem	8LVastMed	9LVastLat	10LGasMed	11LTibAnt	12lTibPost	13LPeroneusLong	14LSol	15LExtDigLong	16LFlexDigLong	17RAddLong	18RGlutMax	19RGlutMed	20RIliopsoas	21RSemiMemb	22RBicFemLong	23RRecFem	24RVastMed	25RVastLat	26RGasMed	27RTibAnt	28RTibPost	29RPeroneusLong	30RSol	31RExtDigLong	32RFlexDigLong
57.835	-0.006104	-0.18402	0.38025	-0.011749	0.026398	0.001221	0.07782	0.022736	0.13138	-0.037537	-0.003662	0.028381	-0.092773	0.078888	-0.35294	0.003662	0.021057	-0.10819	0.6633	0.11276	0.06424	-0.024567	-0.055847	0.12024	-0.1413	0.020142	0.088806	0.092163	2.3466	-0.082245	-0.001068	-0.013733
57.836	0.014038	-0.20096	0.3923	0	0.024872	-0.028381	0.10559	0.019226	0.13992	-0.052032	-0.007782	0.018616	-0.087433	0.12695	-0.14221	0.006256	-0.024567	-0.1619	-0.14664	0.18906	-0.010986	-0.03891	0.16281	0.072479	-0.17044	0.10193	-0.064545	0.004883	-0.97321	-0.24887	-0.002136	0
57.837	0.00061	-0.26947	0.40558	0.000153	0.023499	-0.010223	0.077057	0.018463	0.11948	-0.054016	0.00061	0.009918	-0.085907	0.10193	-0.1088	0.028076	-0.013275	-0.26184	-0.82916	0.073853	0.066223	-0.045471	0.22492	0.13809	-0.16571	0.10788	-0.31403	-0.02533	0.82642	-0.56534	-0.007019	0
57.838	0.003815	-0.27268	0.42282	-0.000305	0.020905	-0.023499	0.1355	0.026245	0.092316	-0.035248	0.006104	0.018158	-0.093231	0.10391	-0.09903	0.022278	-0.030975	-0.38711	-0.64728	-0.10239	0.079651	0.081329	0.27802	0.16129	-0.22675	-0.019836	-0.092926	-0.040436	-2.0967	-0.59692	-0.003662	-0.011139
57.839	-0.006561	-0.24887	0.43518	-0.001678	0.016479	-0.00824	0.086823	0.019379	0.061951	-0.02594	-0.004578	0.024872	-0.089111	0.04425	0.20752	0.027924	0.045013	-0.50736	-0.55725	-0.20874	-0.3009	-0.18799	0.41809	0.028839	-0.53192	-0.26825	0.16907	0.007019	-3.2741	-0.10132	-0.001831	-0.012817
57.84	-0.004272	-0.22232	0.39719	-0.004272	0.019684	0.000305	0.054169	0.016022	0.047455	-0.029297	-0.002594	0.020599	-0.068817	0.022278	0.1413	0.033112	0.078278	-0.55847	-0.51636	-0.13107	-0.31982	-0.30121	0.57205	-0.15305	-0.57617	-0.28381	0.072632	-0.015411	-1.0194	-0.035248	-0.005951	-0.02121
57.841	-0.006256	-0.1796	0.35446	0.003967	0.007629	-0.010681	0.069122	0.017242	0.05188	-0.024872	0.016785	0.009003	-0.082092	0.048828	0.050049	0.023804	0.0914	-0.52368	-0.52917	0.037384	-0.21698	-0.34576	0.53528	-0.16922	-0.40405	-0.11353	-0.014343	-0.3331	-0.036926	0.074005	-0.002441	-0.014954
57.842	-0.008087	-0.10666	0.33417	-0.006866	0.031586	-0.015106	0.13229	0.012512	0.050201	-0.045166	0.041809	0.01297	-0.08728	0.07309	-0.009155	0.024567	0.026245	-0.48355	-0.49042	0.112	0.35873	-0.3389	0.32425	0.018005	0.08606	0.02655	-0.13123	-0.31525	-0.32516	0.16296	-0.001373	-0.021515
57.843	0.002441	-0.096741	0.36896	-0.016327	0.018921	-0.007019	0.17349	0.006714	0.044098	-0.024414	0.056305	0.015106	-0.079651	0.052032	-0.002136	0.023346	0.003815	-0.3894	-0.22827	0.02121	0.39322	-0.41657	0.15228	0.023804	0.33844	0.066833	-0.28625	-0.15472	0.79987	-0.037994	0.00061	-0.037079
57.844	0.005035	-0.079803	0.36606	-0.024261	0.001373	-0.004425	0.12543	0.00885	0.041351	-0.024872	0.038452	0.012207	-0.10178	0.020142	0.03952	0.02121	0.035706	-0.2327	-0.25101	0.020599	0.1619	-0.46005	0.042419	-0.030823	0.55298	-0.093231	-0.064392	-0.18005	0.56915	-0.20706	-0.003052	-0.045929
57.845	0.007477	0.027161	0.29846	-0.013123	0.027313	-0.015106	0.053864	0.003204	0.047913	-0.018463	0.023193	0.008392	-0.10605	0.050507	0.024414	0.010223	0.022278	-0.009766	-0.40726	-0.031433	-0.055695	-0.2124	0.23712	-0.12146	0.57342	0.062866	0.067902	0.3772	-0.28534	-0.13855	-0.001831	-0.046082
57.846	0.015717	0.04364	0.24078	-0.018005	0.005646	-0.011139	0.095367	-0.00061	0.025482	-0.000458	0.0383	0.009003	-0.11459	0.050354	-0.057678	0.019836	0.016022	0.25665	0.11948	-0.1239	-0.25574	-0.16663	0.3775	-0.14694	0.44373	0.17609	0.057678	0.18448	-0.57922	0.37079	-0.002594	-0.03006
57.847	0.014191	0.065155	0.22125	-0.018005	0.028687	-0.024414	0.15442	0.001678	0.023346	-0.005341	0.043335	0.000458	-0.112	0.06958	-0.19623	0.017242	0.046539	0.23544	-0.08194	-0.099945	0.027924	-0.14191	0.4303	-0.015106	0.093994	0.1471	0.1239	0.042725	0.34332	0.90454	-0.002136	-0.024719
